<?xml version="1.0" encoding="UTF-8" standalone="no"?>
<!-- Created with Inkscape (http://www.inkscape.org/) -->

<svg
   version="1.1"
   id="svg1"
   width="474"
   height="193"
   viewBox="0 0 474 193"
   sodipodi:docname="logo.svg"
   inkscape:version="1.4 (e7c3feb100, 2024-10-09)"
   xmlns:inkscape="http://www.inkscape.org/namespaces/inkscape"
   xmlns:sodipodi="http://sodipodi.sourceforge.net/DTD/sodipodi-0.dtd"
   xmlns="http://www.w3.org/2000/svg"
   xmlns:svg="http://www.w3.org/2000/svg">
  <defs
     id="defs1" />
  <sodipodi:namedview
     id="namedview1"
     pagecolor="#ffffff"
     bordercolor="#000000"
     borderopacity="0.25"
     inkscape:showpageshadow="2"
     inkscape:pageopacity="0.0"
     inkscape:pagecheckerboard="0"
     inkscape:deskcolor="#d1d1d1"
     inkscape:zoom="3.7447257"
     inkscape:cx="236.86648"
     inkscape:cy="47.533521"
     inkscape:window-width="1920"
     inkscape:window-height="1025"
     inkscape:window-x="0"
     inkscape:window-y="0"
     inkscape:window-maximized="1"
     inkscape:current-layer="g1" />
  <g
     inkscape:groupmode="layer"
     inkscape:label="Image"
     id="g1">
    <path
       style="fill:#000000"
       d="M 34.715493,96.767042 V 0.26704225 h 236.999997 237 V 96.767042 193.26704 h -237 H 34.715493 Z M 147.21021,143.26886 c 6.90759,-2.37656 14.88077,-6.65426 17.21937,-9.23838 1.7209,-1.90158 1.67381,-1.92534 -2.22801,-1.12423 -6.00741,1.23343 -21.37734,0.8073 -36.48608,-1.01158 -7.425,-0.89386 -17.52169,-1.62575 -22.43709,-1.62642 l -8.937089,-0.001 2.824873,2.94854 c 4.069846,4.248 14.936816,9.6458 23.049306,11.44896 8.48294,1.8855 19.04502,1.33941 26.99472,-1.39568 z m 300.15866,-17.14509 c 20.08631,-7.51525 26.22436,-36.495298 11.03563,-52.103338 -6.71744,-6.90288 -12.4754,-9.17002 -23.18901,-9.13042 -6.28648,0.0232 -10.15098,0.5499 -12.8175,1.74677 -5.45898,2.4503 -12.42826,9.22777 -15.51719,15.09012 -2.33421,4.43 -2.6557,6.19019 -2.6557,14.54014 0,8.432458 0.30449,10.061868 2.70961,14.499998 3.33232,6.14906 5.22342,8.40675 10.00257,11.94158 7.83378,5.79414 20.32614,7.19608 30.43159,3.41515 z m -18.92492,-7.13505 c -9.41362,-3.04927 -15.02258,-11.48469 -15.02258,-22.592758 0,-14.57729 9.99759,-23.96942 24.40527,-22.92726 11.86167,0.858 19.41255,9.93337 19.36246,23.27165 -0.0275,7.328418 -1.58271,11.688368 -5.84058,16.374008 -4.97821,5.47833 -15.66538,8.21928 -22.90457,5.87436 z m -216.93304,-15.72168 0.29543,-23.499998 8.79662,21.520598 c 11.00714,26.92856 10.60204,26.17543 13.87182,25.78933 2.42476,-0.28631 3.3531,-2.09083 12.18274,-23.68095 l 9.55797,-23.371018 0.5,23.371018 0.5,23.37102 4.25,0.3075 4.25,0.3075 v -30.557498 -30.5575 h -6.37258 -6.37258 l -8.76716,21.25 c -4.82193,11.6875 -9.07871,21.846538 -9.4595,22.575638 -0.4083,0.78178 -4.55611,-7.93374 -10.11026,-21.244038 l -9.41792,-22.56968 -6.25,-0.006 -6.25,-0.006 v 30.5575 30.557498 l 4.25,-0.3075 4.25,-0.3075 z m 73.80328,16.5 2.86349,-7.5 h 14.12929 14.1293 l 3.04101,7.25 3.04102,7.25 5.09859,0.30226 c 2.80423,0.16624 5.0986,0.1034 5.0986,-0.13966 0,-0.24305 -5.79472,-13.87907 -12.87716,-30.302248 l -12.87716,-29.86035 h -4.18143 -4.18144 l -12.9414,29.36374 c -7.11778,16.150048 -12.94141,29.762548 -12.94141,30.249998 0,0.48744 2.19042,0.88626 4.86761,0.88626 h 4.8676 z m 6.4013,-15.85692 c 0,-0.19631 2.43912,-6.158808 5.42027,-13.249998 5.15488,-12.2618 5.4727,-12.7564 6.49099,-10.10167 0.5889,1.53528 2.87478,7.1909 5.07973,12.56805 2.20496,5.37716 4.00901,10.083518 4.00901,10.458588 0,0.37507 -4.725,0.68195 -10.5,0.68195 -5.775,0 -10.5,-0.16062 -10.5,-0.35692 z m 57.23222,-0.82438 0.26778,-24.181298 16.33717,24.181298 16.33717,24.1813 h 5.41283 5.41283 v -30.499998 -30.5 h -4.5 -4.5 v 24.18165 24.181638 l -16.25,-24.167198 -16.25,-24.16721 -5.75,-0.0144 -5.75,-0.0144 v 30.5 30.499998 h 4.48222 4.48222 z m -174.99828,15.26141 c 5.68211,-2.1918 5.75121,-2.2677 7.6445,-8.39595 1.05081,-3.40129 1.84132,-6.26337 1.75669,-6.36019 -0.0846,-0.0968 -2.84965,0.73921 -6.1445,1.85785 -9.32338,3.16538 -22.57873,2.19235 -43.49063,-3.1925 -14.37744,-3.702218 -17.91504,-4.255378 -27.5,-4.300078 -8.623796,-0.0402 -12.576505,0.42922 -18.298025,2.173108 -4.013915,1.22341 -7.562524,2.91366 -7.885796,3.75609 -0.323272,0.84244 -0.0586,3.29792 0.58817,5.45663 l 1.175937,3.92493 9.209859,0.0316 c 6.122339,0.021 16.752765,1.35257 31.709855,3.97199 19.28375,3.37715 24.14386,3.8938 34,3.61437 8.90109,-0.25235 12.79583,-0.82588 17.23394,-2.53783 z m 5.0043,-23.693118 c 5.68204,-1.84664 6.04971,-2.33515 5.1933,-6.90024 -0.57246,-3.05146 -0.96217,-3.45311 -2.78816,-2.87356 -4.01168,1.27326 -14.48759,0.46055 -20.59826,-1.59799 -3.3651,-1.13362 -13.12955,-5.23598 -21.69878,-9.11636 -23.72763,-10.74452 -32.55713,-11.89671 -44.846337,-5.85216 -8.746499,4.30203 -14.427591,9.60815 -15.154165,14.15392 l -0.591485,3.7006 5.372825,-2.06928 c 8.090838,-3.11609 17.954042,-3.9465 26.872822,-2.2625 4.125,0.77887 15.375,4.11011 25,7.40276 24.49141,8.37835 31.44145,9.24872 43.23824,5.41481 z m 1.14679,-18.98124 c 1.31823,-0.50585 1.1228,-1.43562 -1.31369,-6.25 -5.96233,-11.78127 -16.88852,-21.87266 -28.57856,-26.39504 -12.70849,-4.91638 -28.78751,-4.19821 -41.49278,1.85328 l -7.5,3.57223 7.36664,1.89135 c 4.05166,1.04024 11.58916,4.14834 16.75,6.90689 5.16085,2.75855 13.77086,7.36271 19.13336,10.23147 5.3625,2.86876 12,5.98721 14.75,6.92987 4.88127,1.67325 17.78013,2.45141 20.88503,1.25995 z"
       id="path91483" />
  </g>
</svg>
